<svg width="139" height="118" viewBox="0 0 139 118" fill="none" xmlns="http://www.w3.org/2000/svg">
<path d="M12.72 84V14.88H19.776V46.032H57.984V14.88H64.992V84H57.984V52.8H19.776V84H12.72Z" fill="#E76F51"/>
<path d="M73.8 84V82.512L111.576 21.648H74.76V14.88H123.144V16.512L85.56 77.28H122.808V84H73.8Z" fill="#E76F51"/>
<path d="M3.12 110V98.48H4.296V103.672H10.664V98.48H11.832V110H10.664V104.8H4.296V110H3.12ZM27.2171 110.24C26.0705 110.24 25.1025 109.987 24.3131 109.48C23.5238 108.968 22.9265 108.261 22.5211 107.36C22.1158 106.459 21.9131 105.419 21.9131 104.24C21.9131 103.061 22.1158 102.021 22.5211 101.12C22.9265 100.219 23.5238 99.5147 24.3131 99.008C25.1025 98.496 26.0705 98.24 27.2171 98.24C28.3691 98.24 29.3371 98.496 30.1211 99.008C30.9105 99.5147 31.5078 100.219 31.9131 101.12C32.3238 102.021 32.5291 103.061 32.5291 104.24C32.5291 105.419 32.3238 106.459 31.9131 107.36C31.5078 108.261 30.9105 108.968 30.1211 109.48C29.3371 109.987 28.3691 110.24 27.2171 110.24ZM27.2171 109.112C28.1185 109.112 28.8705 108.907 29.4731 108.496C30.0758 108.085 30.5265 107.515 30.8251 106.784C31.1291 106.048 31.2811 105.2 31.2811 104.24C31.2811 103.28 31.1291 102.435 30.8251 101.704C30.5265 100.973 30.0758 100.403 29.4731 99.992C28.8705 99.5813 28.1185 99.3733 27.2171 99.368C26.3158 99.368 25.5665 99.5733 24.9691 99.984C24.3718 100.395 23.9211 100.968 23.6171 101.704C23.3185 102.435 23.1665 103.28 23.1611 104.24C23.1558 105.2 23.3025 106.045 23.6011 106.776C23.9051 107.501 24.3585 108.072 24.9611 108.488C25.5638 108.899 26.3158 109.107 27.2171 109.112ZM42.7712 110V98.48H43.9472V108.872H49.4192V110H42.7712ZM59.4231 110V98.48H60.5991V110H59.4231ZM71.4775 110V98.48H74.9735C75.0962 98.48 75.3042 98.4827 75.5975 98.488C75.8962 98.4933 76.1815 98.5147 76.4535 98.552C77.3282 98.6747 78.0588 99 78.6455 99.528C79.2322 100.056 79.6722 100.728 79.9655 101.544C80.2588 102.36 80.4055 103.259 80.4055 104.24C80.4055 105.221 80.2588 106.12 79.9655 106.936C79.6722 107.752 79.2322 108.424 78.6455 108.952C78.0588 109.48 77.3282 109.805 76.4535 109.928C76.1868 109.96 75.9015 109.981 75.5975 109.992C75.2935 109.997 75.0855 110 74.9735 110H71.4775ZM72.6935 108.872H74.9735C75.1922 108.872 75.4268 108.867 75.6775 108.856C75.9335 108.84 76.1522 108.813 76.3335 108.776C77.0055 108.659 77.5468 108.387 77.9575 107.96C78.3735 107.533 78.6775 107 78.8695 106.36C79.0615 105.715 79.1575 105.008 79.1575 104.24C79.1575 103.467 79.0615 102.757 78.8695 102.112C78.6775 101.467 78.3735 100.933 77.9575 100.512C77.5415 100.091 77.0002 99.8213 76.3335 99.704C76.1522 99.6667 75.9308 99.6427 75.6695 99.632C75.4135 99.616 75.1815 99.608 74.9735 99.608H72.6935V108.872ZM89.595 110L93.563 98.48H95.123L99.091 110H97.867L94.099 99.136H94.563L90.819 110H89.595ZM91.363 107.208V106.104H97.315V107.208H91.363ZM108.696 110V109.752L114.992 99.608H108.856V98.48H116.92V98.752L110.656 108.88H116.864V110H108.696ZM127.324 110V98.48H134.524V99.608H128.5V103.592H133.564V104.72H128.5V108.872H134.524V110H127.324Z" fill="white"/>
<rect y="90.5034" width="138.789" height="5.20219" fill="#D9D9D9"/>
<rect x="138.789" y="4.29468" width="91.4098" height="5.71484" transform="rotate(90 138.789 4.29468)" fill="#D9D9D9"/>
<path d="M5.71484 4.29468L5.71484 95.7045H2.72412e-07L2.72412e-07 4.29468H5.71484Z" fill="#D9D9D9"/>
<path d="M0 4.29468H138.789V9.49686H0V4.29468Z" fill="#D9D9D9"/>
</svg>
